<svg xmlns="http://www.w3.org/2000/svg" width="1600" height="2100" viewBox="0 0 1600 2100">

<defs>
  <linearGradient id="bg" x1="0" x2="1" y1="0" y2="1">
    <stop offset="0%" stop-color="#0f172a"/>
    <stop offset="60%" stop-color="#07111f"/>
    <stop offset="100%" stop-color="#020617"/>
  </linearGradient>

  <filter id="shadow" x="-20%" y="-20%" width="140%" height="140%">
    <feDropShadow dx="0" dy="14" stdDeviation="12" flood-color="#000000" flood-opacity="0.38"/>
  </filter>
</defs>

<rect width="1600" height="2100" fill="url(#bg)"/>

<text x="70" y="95" font-size="52" font-weight="900" fill="#ffffff">
KÖZEL-KELET BIZTONSÁGI JELENTÉS
</text>

<text x="70" y="145" font-size="25" fill="#cbd5e1">
Automatikus OSINT napi összefoglaló – 2026-05-12
</text>

<rect x="1120" y="62" width="400" height="160" rx="24" fill="#111827" stroke="#334155"/>

<text x="1160" y="105" font-size="20" fill="#94a3b8">
Kockázati szint
</text>

<text x="1160" y="168" font-size="48" font-weight="900" fill="#f97316">
KÖZEPES
</text>

<text x="1160" y="205" font-size="20" fill="#e5e7eb">
Index: 53.8
</text>

<rect x="70" y="270" width="460" height="240" rx="28" fill="#f8fafc" filter="url(#shadow)"/>
<text x="110" y="330" font-size="24" font-weight="900" fill="#0f172a">Összes esemény</text>
<text x="110" y="420" font-size="88" font-weight="900" fill="#2563eb">150</text>

<rect x="570" y="270" width="460" height="240" rx="28" fill="#f8fafc" filter="url(#shadow)"/>
<text x="610" y="330" font-size="24" font-weight="900" fill="#0f172a">Napi események</text>
<text x="610" y="420" font-size="88" font-weight="900" fill="#16a34a">19</text>

<rect x="1070" y="270" width="450" height="240" rx="28" fill="#f8fafc" filter="url(#shadow)"/>
<text x="1110" y="330" font-size="24" font-weight="900" fill="#0f172a">Domináns jelleg</text>
<text x="1110" y="400" font-size="28" font-weight="900" fill="#f97316">Egyéb biztonsági esemény</text>

<rect x="70" y="590" width="700" height="520" rx="28" fill="#f8fafc" filter="url(#shadow)"/>
<text x="110" y="650" font-size="30" font-weight="900" fill="#0f172a">Leginkább érintett térségek</text>

<text x="110" y="720" font-size="18" font-weight="700" fill="#334155">Iran</text>
<rect x="110" y="732" width="420" height="18" rx="9" fill="#e2e8f0"/>
<rect x="110" y="732" width="420" height="18" rx="9" fill="#2563eb"/>
<text x="550" y="748" font-size="18" font-weight="900" fill="#0f172a">8</text>

<text x="110" y="778" font-size="18" font-weight="700" fill="#334155">Israel</text>
<rect x="110" y="790" width="420" height="18" rx="9" fill="#e2e8f0"/>
<rect x="110" y="790" width="262" height="18" rx="9" fill="#2563eb"/>
<text x="550" y="806" font-size="18" font-weight="900" fill="#0f172a">5</text>

<text x="110" y="836" font-size="18" font-weight="700" fill="#334155">Middle East</text>
<rect x="110" y="848" width="420" height="18" rx="9" fill="#e2e8f0"/>
<rect x="110" y="848" width="105" height="18" rx="9" fill="#2563eb"/>
<text x="550" y="864" font-size="18" font-weight="900" fill="#0f172a">2</text>

<text x="110" y="894" font-size="18" font-weight="700" fill="#334155">Lebanon</text>
<rect x="110" y="906" width="420" height="18" rx="9" fill="#e2e8f0"/>
<rect x="110" y="906" width="52" height="18" rx="9" fill="#2563eb"/>
<text x="550" y="922" font-size="18" font-weight="900" fill="#0f172a">1</text>

<text x="110" y="952" font-size="18" font-weight="700" fill="#334155">Iraq</text>
<rect x="110" y="964" width="420" height="18" rx="9" fill="#e2e8f0"/>
<rect x="110" y="964" width="52" height="18" rx="9" fill="#2563eb"/>
<text x="550" y="980" font-size="18" font-weight="900" fill="#0f172a">1</text>

<text x="110" y="1010" font-size="18" font-weight="700" fill="#334155">Tehran</text>
<rect x="110" y="1022" width="420" height="18" rx="9" fill="#e2e8f0"/>
<rect x="110" y="1022" width="52" height="18" rx="9" fill="#2563eb"/>
<text x="550" y="1038" font-size="18" font-weight="900" fill="#0f172a">1</text>

<text x="110" y="1068" font-size="18" font-weight="700" fill="#334155">West Bank</text>
<rect x="110" y="1080" width="420" height="18" rx="9" fill="#e2e8f0"/>
<rect x="110" y="1080" width="52" height="18" rx="9" fill="#2563eb"/>
<text x="550" y="1096" font-size="18" font-weight="900" fill="#0f172a">1</text>

<rect x="820" y="590" width="700" height="520" rx="28" fill="#f8fafc" filter="url(#shadow)"/>
<text x="860" y="650" font-size="30" font-weight="900" fill="#0f172a">Eseményjelleg</text>

<text x="860" y="720" font-size="18" font-weight="700" fill="#334155">Egyéb biztonsági esemény</text>
<rect x="860" y="732" width="420" height="18" rx="9" fill="#e2e8f0"/>
<rect x="860" y="732" width="420" height="18" rx="9" fill="#f97316"/>
<text x="1300" y="748" font-size="18" font-weight="900" fill="#0f172a">14</text>

<text x="860" y="778" font-size="18" font-weight="700" fill="#334155">Politikai / diplomáciai fejlemény</text>
<rect x="860" y="790" width="420" height="18" rx="9" fill="#e2e8f0"/>
<rect x="860" y="790" width="60" height="18" rx="9" fill="#f97316"/>
<text x="1300" y="806" font-size="18" font-weight="900" fill="#0f172a">2</text>

<text x="860" y="836" font-size="18" font-weight="700" fill="#334155">Terrorjellegű / milíciaaktivitás</text>
<rect x="860" y="848" width="420" height="18" rx="9" fill="#e2e8f0"/>
<rect x="860" y="848" width="30" height="18" rx="9" fill="#f97316"/>
<text x="1300" y="864" font-size="18" font-weight="900" fill="#0f172a">1</text>

<text x="860" y="894" font-size="18" font-weight="700" fill="#334155">Drón / UAV aktivitás</text>
<rect x="860" y="906" width="420" height="18" rx="9" fill="#e2e8f0"/>
<rect x="860" y="906" width="30" height="18" rx="9" fill="#f97316"/>
<text x="1300" y="922" font-size="18" font-weight="900" fill="#0f172a">1</text>

<text x="860" y="952" font-size="18" font-weight="700" fill="#334155">Katonai / háborús cselekmény</text>
<rect x="860" y="964" width="420" height="18" rx="9" fill="#e2e8f0"/>
<rect x="860" y="964" width="30" height="18" rx="9" fill="#f97316"/>
<text x="1300" y="980" font-size="18" font-weight="900" fill="#0f172a">1</text>

<rect x="70" y="1180" width="700" height="500" rx="28" fill="#f8fafc" filter="url(#shadow)"/>
<text x="110" y="1245" font-size="30" font-weight="900" fill="#0f172a">Top szereplők</text>

<rect x="820" y="1180" width="700" height="500" rx="28" fill="#f8fafc" filter="url(#shadow)"/>
<text x="860" y="1245" font-size="30" font-weight="900" fill="#0f172a">Top interakciók</text>

<rect x="70" y="1750" width="1450" height="170" rx="24" fill="#111827" stroke="#334155"/>

<text x="110" y="1810" font-size="20" font-weight="800" fill="#e5e7eb">
Kulcsmegállapítás
</text>

<text x="110" y="1860" font-size="24" fill="#cbd5e1">
A domináns eseményjelleg: Egyéb biztonsági esemény.
A napi aktivitás főként a legmagasabb kockázatú közel-keleti térségekhez kapcsolódik.
</text>

<rect x="70" y="1960" width="1450" height="100" rx="24" fill="#0f172a"/>

<text x="110" y="2010" font-size="18" fill="#cbd5e1">
Automatikus OSINT-alapú napi összefoglaló • Nem hivatalos konfliktus- vagy veszteségstatisztika
</text>

<text x="1180" y="2010" font-size="20" font-weight="900" fill="#93c5fd">
ME Security Monitor
</text>

</svg>
