<svg xmlns="http://www.w3.org/2000/svg" width="1600" height="2100" viewBox="0 0 1600 2100">
<defs>
  <linearGradient id="bg" x1="0" x2="1" y1="0" y2="1">
    <stop offset="0%" stop-color="#0f172a"/>
    <stop offset="60%" stop-color="#07111f"/>
    <stop offset="100%" stop-color="#020617"/>
  </linearGradient>
  <filter id="shadow" x="-20%" y="-20%" width="140%" height="140%">
    <feDropShadow dx="0" dy="14" stdDeviation="12" flood-color="#000000" flood-opacity="0.38"/>
  </filter>
</defs>

<rect width="1600" height="2100" fill="url(#bg)"/>

<text x="70" y="95" font-size="50" font-weight="900" fill="#ffffff">KÖZEL-KELET BIZTONSÁGI JELENTÉS</text>
<text x="70" y="145" font-size="25" fill="#cbd5e1">Automatikus OSINT napi összefoglaló – 2026-05-12</text>
<text x="70" y="190" font-size="21" fill="#93c5fd">Irán • Izrael • Libanon • Gáza • Szíria • Irak • Jemen</text>

<rect x="1110" y="62" width="410" height="150" rx="24" fill="#111827" stroke="#334155"/>
<text x="1150" y="105" font-size="20" fill="#94a3b8">Aktuális kockázati szint</text>
<text x="1150" y="165" font-size="46" font-weight="900" fill="#f97316">KÖZEPES</text>
<text x="1150" y="198" font-size="20" fill="#e5e7eb">Index: 53.8</text>

<rect x="70" y="270" width="460" height="250" rx="28" fill="#f8fafc" filter="url(#shadow)"/>
<text x="110" y="330" font-size="24" font-weight="900" fill="#0f172a">Összes esemény</text>
<text x="110" y="420" font-size="88" font-weight="900" fill="#2563eb">150</text>
<text x="110" y="470" font-size="22" fill="#475569">7 napos ablak alapján</text>

<rect x="570" y="270" width="460" height="250" rx="28" fill="#f8fafc" filter="url(#shadow)"/>
<text x="610" y="330" font-size="24" font-weight="900" fill="#0f172a">Napi találatok</text>
<text x="610" y="420" font-size="88" font-weight="900" fill="#16a34a">19</text>
<text x="610" y="470" font-size="22" fill="#475569">jelentéshez használt esemény</text>

<rect x="1070" y="270" width="450" height="250" rx="28" fill="#f8fafc" filter="url(#shadow)"/>
<text x="1110" y="330" font-size="24" font-weight="900" fill="#0f172a">Domináns jelleg</text>
<text x="1110" y="395" font-size="30" font-weight="900" fill="#f97316">Katonai / háborús cselekmény</text>

<rect x="70" y="590" width="700" height="520" rx="28" fill="#f8fafc" filter="url(#shadow)"/>
<text x="110" y="650" font-size="30" font-weight="900" fill="#0f172a">Fő térségek</text>

    <text x="110" y="720" font-size="18" font-weight="700" fill="#334155">Iran</text>
    <rect x="110" y="732" width="470" height="18" rx="9" fill="#e2e8f0"/>
    <rect x="110" y="732" width="470" height="18" rx="9" fill="#2563eb"/>
    <text x="598" y="748" font-size="18" font-weight="900" fill="#0f172a">8</text>
    
    <text x="110" y="782" font-size="18" font-weight="700" fill="#334155">Israel</text>
    <rect x="110" y="794" width="470" height="18" rx="9" fill="#e2e8f0"/>
    <rect x="110" y="794" width="293" height="18" rx="9" fill="#2563eb"/>
    <text x="598" y="810" font-size="18" font-weight="900" fill="#0f172a">5</text>
    
    <text x="110" y="844" font-size="18" font-weight="700" fill="#334155">Lebanon</text>
    <rect x="110" y="856" width="470" height="18" rx="9" fill="#e2e8f0"/>
    <rect x="110" y="856" width="58" height="18" rx="9" fill="#2563eb"/>
    <text x="598" y="872" font-size="18" font-weight="900" fill="#0f172a">1</text>
    
    <text x="110" y="906" font-size="18" font-weight="700" fill="#334155">Iraq</text>
    <rect x="110" y="918" width="470" height="18" rx="9" fill="#e2e8f0"/>
    <rect x="110" y="918" width="58" height="18" rx="9" fill="#2563eb"/>
    <text x="598" y="934" font-size="18" font-weight="900" fill="#0f172a">1</text>
    
<rect x="820" y="590" width="700" height="520" rx="28" fill="#f8fafc" filter="url(#shadow)"/>
<text x="860" y="650" font-size="30" font-weight="900" fill="#0f172a">Eseményjelleg</text>

    <text x="860" y="720" font-size="18" font-weight="700" fill="#334155">Katonai / háborús cselekmény</text>
    <rect x="860" y="732" width="470" height="18" rx="9" fill="#e2e8f0"/>
    <rect x="860" y="732" width="470" height="18" rx="9" fill="#f97316"/>
    <text x="1348" y="748" font-size="18" font-weight="900" fill="#0f172a">8</text>
    
    <text x="860" y="782" font-size="18" font-weight="700" fill="#334155">Egyéb biztonsági esemény</text>
    <rect x="860" y="794" width="470" height="18" rx="9" fill="#e2e8f0"/>
    <rect x="860" y="794" width="352" height="18" rx="9" fill="#f97316"/>
    <text x="1348" y="810" font-size="18" font-weight="900" fill="#0f172a">6</text>
    
    <text x="860" y="844" font-size="18" font-weight="700" fill="#334155">Politikai / diplomáciai fejlemény</text>
    <rect x="860" y="856" width="470" height="18" rx="9" fill="#e2e8f0"/>
    <rect x="860" y="856" width="176" height="18" rx="9" fill="#f97316"/>
    <text x="1348" y="872" font-size="18" font-weight="900" fill="#0f172a">3</text>
    
    <text x="860" y="906" font-size="18" font-weight="700" fill="#334155">Terrorjellegű / milíciaaktivitás</text>
    <rect x="860" y="918" width="470" height="18" rx="9" fill="#e2e8f0"/>
    <rect x="860" y="918" width="58" height="18" rx="9" fill="#f97316"/>
    <text x="1348" y="934" font-size="18" font-weight="900" fill="#0f172a">1</text>
    
    <text x="860" y="968" font-size="18" font-weight="700" fill="#334155">Drón / UAV aktivitás</text>
    <rect x="860" y="980" width="470" height="18" rx="9" fill="#e2e8f0"/>
    <rect x="860" y="980" width="58" height="18" rx="9" fill="#f97316"/>
    <text x="1348" y="996" font-size="18" font-weight="900" fill="#0f172a">1</text>
    
<rect x="70" y="1180" width="1450" height="600" rx="28" fill="#f8fafc" filter="url(#shadow)"/>
<text x="110" y="1245" font-size="32" font-weight="900" fill="#0f172a">Top események</text>

<circle cx="118" cy="1297" r="8" fill="#f97316"/>
<text x="145" y="1305" font-size="21" font-weight="900" fill="#0f172a">{&#x27;name&#x27;: &#x27;Lebanon&#x27;, &#x27;lat&#x27;: 33.8547, &#x27;lng&#x27;: 35.8623}</text>
<text x="330" y="1305" font-size="19" fill="#334155">Drón / UAV aktivitás</text>
<text x="145" y="1339" font-size="18" fill="#475569">Evolving drone war in southern Lebanon clouds Iran peace prospects - Reuters</text>

<circle cx="118" cy="1375" r="8" fill="#f97316"/>
<text x="145" y="1383" font-size="21" font-weight="900" fill="#0f172a">{&#x27;name&#x27;: &#x27;Iran&#x27;, &#x27;lat&#x27;: 32.4279, &#x27;lng&#x27;: 53.688}</text>
<text x="330" y="1383" font-size="19" fill="#334155">Katonai / háborús cselekmény</text>
<text x="145" y="1417" font-size="18" fill="#475569">Iran war creates new must-have for summer holidays: the plan B - Reuters</text>

<circle cx="118" cy="1453" r="8" fill="#f97316"/>
<text x="145" y="1461" font-size="21" font-weight="900" fill="#0f172a">{&#x27;name&#x27;: &#x27;Iran&#x27;, &#x27;lat&#x27;: 32.4279, &#x27;lng&#x27;: 53.688}</text>
<text x="330" y="1461" font-size="19" fill="#334155">Katonai / háborús cselekmény</text>
<text x="145" y="1495" font-size="18" fill="#475569">Iran could enrich uranium to weapons grade if attacked, lawmaker warns - Reuters</text>

<circle cx="118" cy="1531" r="8" fill="#f97316"/>
<text x="145" y="1539" font-size="21" font-weight="900" fill="#0f172a">{&#x27;name&#x27;: &#x27;Iran&#x27;, &#x27;lat&#x27;: 32.4279, &#x27;lng&#x27;: 53.688}</text>
<text x="330" y="1539" font-size="19" fill="#334155">Katonai / háborús cselekmény</text>
<text x="145" y="1573" font-size="18" fill="#475569">World markets feel the strain as US–Iran war grinds on - Reuters</text>

<circle cx="118" cy="1609" r="8" fill="#f97316"/>
<text x="145" y="1617" font-size="21" font-weight="900" fill="#0f172a">{&#x27;name&#x27;: &#x27;Iran&#x27;, &#x27;lat&#x27;: 32.4279, &#x27;lng&#x27;: 53.688}</text>
<text x="330" y="1617" font-size="19" fill="#334155">Katonai / háborús cselekmény</text>
<text x="145" y="1651" font-size="18" fill="#475569">Europe&#x27;s chemical makers catch a break as Iran war hits Asian rivals - Reuters</text>

<circle cx="118" cy="1687" r="8" fill="#f97316"/>
<text x="145" y="1695" font-size="21" font-weight="900" fill="#0f172a">{&#x27;name&#x27;: &#x27;Iran&#x27;, &#x27;lat&#x27;: 32.4279, &#x27;lng&#x27;: 53.688}</text>
<text x="330" y="1695" font-size="19" fill="#334155">Katonai / háborús cselekmény</text>
<text x="145" y="1729" font-size="18" fill="#475569">Iran war takes colour out of Japanese snack maker Calbee&#x27;s chips packaging - Reuters</text>

<rect x="70" y="1880" width="1450" height="120" rx="24" fill="#111827" stroke="#334155"/>
<text x="110" y="1930" font-size="20" font-weight="800" fill="#e5e7eb">Módszertani megjegyzés</text>
<text x="110" y="1970" font-size="18" fill="#cbd5e1">Automatikus OSINT-alapú napi összefoglaló. Nem hivatalos konfliktus- vagy veszteségstatisztika.</text>
<text x="1130" y="1970" font-size="20" font-weight="900" fill="#93c5fd">ME Security Monitor</text>
</svg>
