<svg xmlns="http://www.w3.org/2000/svg" width="1600" height="2100" viewBox="0 0 1600 2100">
<defs>
  <linearGradient id="bg" x1="0" x2="1" y1="0" y2="1">
    <stop offset="0%" stop-color="#0f172a"/>
    <stop offset="60%" stop-color="#07111f"/>
    <stop offset="100%" stop-color="#020617"/>
  </linearGradient>
  <filter id="shadow" x="-20%" y="-20%" width="140%" height="140%">
    <feDropShadow dx="0" dy="14" stdDeviation="12" flood-color="#000000" flood-opacity="0.38"/>
  </filter>
</defs>

<rect width="1600" height="2100" fill="url(#bg)"/>

<text x="70" y="95" font-size="52" font-weight="900" fill="#ffffff">KÖZEL-KELET BIZTONSÁGI JELENTÉS</text>
<text x="70" y="145" font-size="25" fill="#cbd5e1">Automatikus OSINT összefoglaló – 2026-07-16</text>
<text x="70" y="190" font-size="21" fill="#93c5fd">Napi események • FIRMS 3 nap • social media 7 nap • országkockázat • szereplők</text>

<rect x="1120" y="62" width="400" height="160" rx="24" fill="#111827" stroke="#334155"/>
<text x="1160" y="105" font-size="20" fill="#94a3b8">Kockázati szint</text>
<text x="1160" y="168" font-size="48" font-weight="900" fill="#f97316">KÖZEPES</text>
<text x="1160" y="205" font-size="20" fill="#e5e7eb">Index: 76.3</text>

<rect x="70" y="270" width="350" height="220" rx="28" fill="#f8fafc" filter="url(#shadow)"/>
<text x="105" y="330" font-size="22" font-weight="900" fill="#0f172a">Napi események</text>
<text x="105" y="420" font-size="76" font-weight="900" fill="#2563eb">3</text>

<rect x="450" y="270" width="350" height="220" rx="28" fill="#f8fafc" filter="url(#shadow)"/>
<text x="485" y="330" font-size="22" font-weight="900" fill="#0f172a">FIRMS / 3 nap</text>
<text x="485" y="420" font-size="76" font-weight="900" fill="#f97316">0</text>

<rect x="830" y="270" width="350" height="220" rx="28" fill="#f8fafc" filter="url(#shadow)"/>
<text x="865" y="330" font-size="22" font-weight="900" fill="#0f172a">Social / 7 nap</text>
<text x="865" y="420" font-size="76" font-weight="900" fill="#16a34a">0</text>

<rect x="1210" y="270" width="310" height="220" rx="28" fill="#f8fafc" filter="url(#shadow)"/>
<text x="1245" y="330" font-size="22" font-weight="900" fill="#0f172a">Fő rizikó</text>
<text x="1245" y="395" font-size="32" font-weight="900" fill="#dc2626">Iran</text>

<rect x="70" y="560" width="700" height="520" rx="28" fill="#f8fafc" filter="url(#shadow)"/>
<text x="110" y="620" font-size="30" font-weight="900" fill="#0f172a">Országonkénti rizikó</text>

    <text x="110" y="690" font-size="18" font-weight="700" fill="#334155">Iran</text>
    <rect x="110" y="702" width="420" height="18" rx="9" fill="#e2e8f0"/>
    <rect x="110" y="702" width="420" height="18" rx="9" fill="#dc2626"/>
    <text x="548" y="718" font-size="18" font-weight="900" fill="#0f172a">129.6</text>
    
    <text x="110" y="748" font-size="18" font-weight="700" fill="#334155">Gaza Strip</text>
    <rect x="110" y="760" width="420" height="18" rx="9" fill="#e2e8f0"/>
    <rect x="110" y="760" width="65" height="18" rx="9" fill="#dc2626"/>
    <text x="548" y="776" font-size="18" font-weight="900" fill="#0f172a">20.1</text>
    
    <text x="110" y="806" font-size="18" font-weight="700" fill="#334155">Israel</text>
    <rect x="110" y="818" width="420" height="18" rx="9" fill="#e2e8f0"/>
    <rect x="110" y="818" width="40" height="18" rx="9" fill="#dc2626"/>
    <text x="548" y="834" font-size="18" font-weight="900" fill="#0f172a">12.6</text>
    
    <text x="110" y="864" font-size="18" font-weight="700" fill="#334155">Iraq</text>
    <rect x="110" y="876" width="420" height="18" rx="9" fill="#e2e8f0"/>
    <rect x="110" y="876" width="16" height="18" rx="9" fill="#dc2626"/>
    <text x="548" y="892" font-size="18" font-weight="900" fill="#0f172a">5.2</text>
    
    <text x="110" y="922" font-size="18" font-weight="700" fill="#334155">Tehran</text>
    <rect x="110" y="934" width="420" height="18" rx="9" fill="#e2e8f0"/>
    <rect x="110" y="934" width="15" height="18" rx="9" fill="#dc2626"/>
    <text x="548" y="950" font-size="18" font-weight="900" fill="#0f172a">4.8</text>
    
<rect x="820" y="560" width="700" height="520" rx="28" fill="#f8fafc" filter="url(#shadow)"/>
<text x="860" y="620" font-size="30" font-weight="900" fill="#0f172a">Eseményjelleg</text>

    <text x="860" y="690" font-size="18" font-weight="700" fill="#334155">Katonai / háborús cselekmény</text>
    <rect x="860" y="702" width="420" height="18" rx="9" fill="#e2e8f0"/>
    <rect x="860" y="702" width="420" height="18" rx="9" fill="#f97316"/>
    <text x="1298" y="718" font-size="18" font-weight="900" fill="#0f172a">3</text>
    
<rect x="70" y="1150" width="700" height="430" rx="28" fill="#f8fafc" filter="url(#shadow)"/>
<text x="110" y="1210" font-size="30" font-weight="900" fill="#0f172a">Top szereplők</text>

    <text x="110" y="1280" font-size="18" font-weight="700" fill="#334155">Iran</text>
    <rect x="110" y="1292" width="420" height="18" rx="9" fill="#e2e8f0"/>
    <rect x="110" y="1292" width="420" height="18" rx="9" fill="#16a34a"/>
    <text x="548" y="1308" font-size="18" font-weight="900" fill="#0f172a">3</text>
    
    <text x="110" y="1338" font-size="18" font-weight="700" fill="#334155">United States</text>
    <rect x="110" y="1350" width="420" height="18" rx="9" fill="#e2e8f0"/>
    <rect x="110" y="1350" width="140" height="18" rx="9" fill="#16a34a"/>
    <text x="548" y="1366" font-size="18" font-weight="900" fill="#0f172a">1</text>
    
    <text x="110" y="1396" font-size="18" font-weight="700" fill="#334155">Qatar</text>
    <rect x="110" y="1408" width="420" height="18" rx="9" fill="#e2e8f0"/>
    <rect x="110" y="1408" width="140" height="18" rx="9" fill="#16a34a"/>
    <text x="548" y="1424" font-size="18" font-weight="900" fill="#0f172a">1</text>
    
<rect x="820" y="1150" width="700" height="430" rx="28" fill="#f8fafc" filter="url(#shadow)"/>
<text x="860" y="1210" font-size="30" font-weight="900" fill="#0f172a">Top események</text>

<circle cx="870" cy="1272" r="8" fill="#f97316"/>
<text x="895" y="1280" font-size="20" font-weight="900" fill="#0f172a">Iran</text>
<text x="1160" y="1280" font-size="18" fill="#334155">Iran</text>
<text x="895" y="1312" font-size="17" fill="#475569">Katonai vagy háborús esemény: Iran</text>

<circle cx="870" cy="1354" r="8" fill="#f97316"/>
<text x="895" y="1362" font-size="20" font-weight="900" fill="#0f172a">Iran</text>
<text x="1160" y="1362" font-size="18" fill="#334155">Iran, Qatar</text>
<text x="895" y="1394" font-size="17" fill="#475569">Katonai vagy háborús esemény: Iran</text>

<circle cx="870" cy="1436" r="8" fill="#f97316"/>
<text x="895" y="1444" font-size="20" font-weight="900" fill="#0f172a">Tehran</text>
<text x="1160" y="1444" font-size="18" fill="#334155">Iran, United States</text>
<text x="895" y="1476" font-size="17" fill="#475569">Katonai vagy háborús esemény: Tehran</text>

<rect x="70" y="1650" width="1450" height="210" rx="28" fill="#111827" stroke="#334155"/>
<text x="110" y="1710" font-size="22" font-weight="900" fill="#e5e7eb">Kulcsmegállapítás</text>
<text x="110" y="1760" font-size="24" fill="#cbd5e1">Domináns eseményjelleg: Katonai / háborús cselekmény. Fő kockázati ország/térség: Iran.</text>
<text x="110" y="1810" font-size="22" fill="#cbd5e1">FIRMS hőpontok / 3 nap: 0 • Social media / 7 nap: 0 • Napi OSINT események: 3</text>

<rect x="70" y="1930" width="1450" height="110" rx="24" fill="#0f172a"/>
<text x="110" y="1985" font-size="18" fill="#cbd5e1">Automatikus OSINT-alapú összefoglaló • Nem hivatalos konfliktus- vagy veszteségstatisztika</text>
<text x="1180" y="1985" font-size="20" font-weight="900" fill="#93c5fd">ME Security Monitor</text>
</svg>
